<svg width="64" height="64" viewBox="0 0 64 64" fill="none" xmlns="http://www.w3.org/2000/svg">
<path d="M61.3333 34.6113H2.66667C1.19466 34.6113 0 33.4167 0 31.9447C0 30.4727 1.19466 29.278 2.66667 29.278H61.3333C62.8053 29.278 64 30.4727 64 31.9447C64 33.4167 62.8053 34.6113 61.3333 34.6113Z" fill="white"/>
<path d="M61.3333 14.1666H2.66667C1.19466 14.1666 0 12.972 0 11.5C0 10.028 1.19466 8.83331 2.66667 8.83331H61.3333C62.8053 8.83331 64 10.028 64 11.5C64 12.972 62.8053 14.1666 61.3333 14.1666Z" fill="white"/>
<path d="M61.3333 55.0553H2.66667C1.19466 55.0553 0 53.8607 0 52.3887C0 50.9166 1.19466 49.722 2.66667 49.722H61.3333C62.8053 49.722 64 50.9166 64 52.3887C64 53.8607 62.8053 55.0553 61.3333 55.0553Z" fill="white"/>
</svg>
