<svg width="424" height="67" viewBox="0 0 424 67" fill="none" xmlns="http://www.w3.org/2000/svg">
<path fill-rule="evenodd" clip-rule="evenodd" d="M0 22.3333L17.6667 24.8148C35.3333 27.2963 70.6667 32.2593 106 35.9815C141.333 39.7037 176.667 42.1852 212 38.463C247.333 34.7407 282.667 24.8148 318 17.3704C353.333 9.92593 388.667 4.96296 406.333 2.48148L424 0V67H406.333C388.667 67 353.333 67 318 67C282.667 67 247.333 67 212 67C176.667 67 141.333 67 106 67C70.6667 67 35.3333 67 17.6667 67H0V22.3333Z" fill="#837F7F"/>
<path fill-rule="evenodd" clip-rule="evenodd" d="M0 22.3333L17.6667 24.8148C35.3333 27.2963 70.6667 32.2593 106 35.9815C141.333 39.7037 176.667 42.1852 212 38.463C247.333 34.7407 282.667 24.8148 318 17.3704C353.333 9.92593 388.667 4.96296 406.333 2.48148L424 0V67H406.333C388.667 67 353.333 67 318 67C282.667 67 247.333 67 212 67C176.667 67 141.333 67 106 67C70.6667 67 35.3333 67 17.6667 67H0V22.3333Z" fill="url(#paint0_linear)"/>
<defs>
<linearGradient id="paint0_linear" x1="424" y1="99.1445" x2="177.535" y2="-155.703" gradientUnits="userSpaceOnUse">
<stop stop-color="#E04545"/>
<stop offset="1" stop-color="#564D4D" stop-opacity="0"/>
</linearGradient>
</defs>
</svg>
