<svg width="64" height="64" viewBox="0 0 64 64" fill="none" xmlns="http://www.w3.org/2000/svg">
<g clip-path="url(#clip0)">
<path d="M17.1841 39.5707L44.7521 45.4267L45.9067 39.856L18.3387 33.9573L17.1841 39.5707Z" fill="#FF9800"/>
<path d="M16.5734 46.856H44.7493V52.528H16.5734V46.856Z" fill="#FF9800"/>
<path d="M20.7999 26.216L46.3252 38.2853L48.6906 33.1013L23.1519 21L20.7999 26.216Z" fill="#FF9800"/>
<path d="M46.3279 38.2875L46.3253 38.2853L46.3228 38.2875H46.3279Z" fill="#FF9800"/>
<path d="M5.33325 41.144V64H55.9786V41.144H50.3439V58.2853H10.9679V41.144H5.33325Z" fill="#050505" fill-opacity="0.3"/>
<path d="M27.8747 13.5013L49.4987 31.8293L53.088 27.4293L31.464 9.10132L27.8747 13.5013Z" fill="#FF9800"/>
<path d="M58.6666 22.8987L41.8613 0L37.3519 3.42933L54.1573 26.328L58.6666 22.8987Z" fill="#FF9800"/>
</g>
<defs>
<clipPath id="clip0">
<rect width="64" height="64" fill="white"/>
</clipPath>
</defs>
</svg>
